<svg width="90" height="28" viewBox="0 0 90 28" fill="none" xmlns="http://www.w3.org/2000/svg">
<path d="M56.2669 12.0409V14.5988H54.5504V16.2763H56.2669V21.9759C56.2669 23.9221 57.2095 24.7006 59.5808 24.7006C59.9975 24.7006 60.3944 24.6543 60.7417 24.5987V22.9397C60.444 22.9676 60.2555 22.9861 59.9281 22.9861C58.8664 22.9861 58.4001 22.5227 58.4001 21.4662V16.2763H60.7417V14.5988H58.4001V12.0409H56.2669Z" fill="#7264D6"/>
<path d="M66.7825 24.8396C69.9377 24.8396 71.8725 22.8656 71.8725 19.5941C71.8725 16.3411 69.9278 14.3578 66.7825 14.3578C63.6274 14.3578 61.6827 16.3411 61.6827 19.5941C61.6827 22.8656 63.6175 24.8396 66.7825 24.8396ZM66.7825 23.0695C64.9271 23.0695 63.8853 21.7998 63.8853 19.5941C63.8853 17.4069 64.9271 16.128 66.7825 16.128C68.628 16.128 69.6797 17.4069 69.6797 19.5941C69.6797 21.7906 68.628 23.0695 66.7825 23.0695Z" fill="#7264D6"/>
<path d="M73.5278 24.645H75.6611V18.6859C75.6611 17.2679 76.8021 16.3133 78.4193 16.3133C78.7964 16.3133 79.4314 16.3782 79.61 16.4338V14.4691C79.3818 14.4134 78.975 14.3856 78.6575 14.3856C77.2486 14.3856 76.048 15.1085 75.7404 16.1002H75.5817V14.5525H73.5278V24.645Z" fill="#7264D6"/>
<path d="M84.9067 16.0538C86.4843 16.0538 87.5162 17.0825 87.5658 18.6673H82.1087C82.2278 17.0918 83.3291 16.0538 84.9067 16.0538ZM87.5558 21.9203C87.159 22.7081 86.2759 23.1436 84.9861 23.1436C83.2795 23.1436 82.1782 22.0222 82.1087 20.2521V20.1409H89.7387V19.4458C89.7387 16.2763 87.9229 14.3578 84.9166 14.3578C81.8706 14.3578 79.9358 16.406 79.9358 19.6312C79.9358 22.8563 81.8309 24.8396 84.9265 24.8396C87.3971 24.8396 89.1235 23.7275 89.6097 21.9203H87.5558Z" fill="#7264D6"/>
<path d="M42.2776 20.918C42.4422 23.3963 44.6532 24.9812 47.944 24.9812C51.461 24.9812 53.6618 23.3194 53.6618 20.6682C53.6618 18.5838 52.4071 17.4311 49.3632 16.7683L47.728 16.3937C45.7947 15.971 45.0131 15.4043 45.0131 14.4149C45.0131 13.1662 46.2266 12.3497 48.0468 12.3497C49.7745 12.3497 50.9674 13.147 51.1834 14.4245H53.4252C53.2915 12.0903 51.0908 10.4478 48.0777 10.4478C44.8383 10.4478 42.6787 12.0903 42.6787 14.559C42.6787 16.5954 43.9025 17.8057 46.5865 18.3917L48.4993 18.8239C50.4635 19.2562 51.3273 19.8902 51.3273 20.9468C51.3273 22.1763 49.9699 23.0697 48.1188 23.0697C46.134 23.0697 44.756 22.234 44.5606 20.918H42.2776Z" fill="#7264D6"/>
<path d="M20.1798 14.3856C18.7113 14.3856 17.4413 15.0715 16.7865 16.2207H16.6277V14.5525H14.5739V27.9999H16.7071V23.1158H16.8758C17.4413 24.1816 18.6617 24.8118 20.1996 24.8118C22.9281 24.8118 24.6645 22.8007 24.6645 19.5941C24.6645 16.3875 22.9281 14.3856 20.1798 14.3856ZM19.5745 23.0232C17.7886 23.0232 16.6674 21.7071 16.6674 19.6034C16.6674 17.4903 17.7886 16.1743 19.5844 16.1743C21.3902 16.1743 22.4717 17.4625 22.4717 19.5941C22.4717 21.7349 21.3902 23.0232 19.5745 23.0232Z" fill="#7264D6"/>
<path d="M32.1289 14.3856C30.6605 14.3856 29.3905 15.0715 28.7356 16.2207H28.5769V14.5525H26.523V27.9999H28.6562V23.1158H28.8249C29.3905 24.1816 30.6109 24.8118 32.1488 24.8118C34.8773 24.8118 36.6136 22.8007 36.6136 19.5941C36.6136 16.3875 34.8773 14.3856 32.1289 14.3856ZM31.5237 23.0232C29.7377 23.0232 28.6166 21.7071 28.6166 19.6034C28.6166 17.4903 29.7377 16.1743 31.5336 16.1743C33.3394 16.1743 34.4209 17.4625 34.4209 19.5941C34.4209 21.7349 33.3394 23.0232 31.5237 23.0232Z" fill="#7264D6"/>
<path d="M10.7465 24.645H13.1941L7.83623 10.784H5.35784L0 24.645H2.36527L3.73301 20.966H9.38908L10.7465 24.645ZM6.47877 13.3007H6.6536L8.8029 19.1601H4.31918L6.47877 13.3007Z" fill="#7264D6"/>
<path d="M1.43359 0.329004V7.01567H4.01825C6.15146 7.01567 7.38674 5.78769 7.38674 3.65148C7.38674 1.54771 6.14154 0.329004 4.01825 0.329004H1.43359ZM2.54485 1.27431H3.89423C5.37755 1.27431 6.25564 2.15475 6.25564 3.66538C6.25564 5.19919 5.39243 6.07036 3.89423 6.07036H2.54485V1.27431Z" fill="#7264D6"/>
<path d="M11.17 7.11298C12.7475 7.11298 13.7149 6.12596 13.7149 4.49021C13.7149 2.86373 12.7426 1.87208 11.17 1.87208C9.59238 1.87208 8.62003 2.86373 8.62003 4.49021C8.62003 6.12596 9.58742 7.11298 11.17 7.11298ZM11.17 6.22791C10.2423 6.22791 9.72136 5.59307 9.72136 4.49021C9.72136 3.39662 10.2423 2.75715 11.17 2.75715C12.0927 2.75715 12.6186 3.39662 12.6186 4.49021C12.6186 5.58844 12.0927 6.22791 11.17 6.22791Z" fill="#7264D6"/>
<path d="M21.9531 1.96939H20.8865L19.9241 5.82013H19.8397L18.7285 1.96939H17.7065L16.5953 5.82013H16.5159L15.5485 1.96939H14.467L15.9553 7.01567H17.0517L18.1629 3.29931H18.2473L19.3635 7.01567H20.4698L21.9531 1.96939Z" fill="#7264D6"/>
<path d="M23.1814 7.01567H24.248V4.0639C24.248 3.27614 24.7491 2.78495 25.5379 2.78495C26.3267 2.78495 26.7037 3.1881 26.7037 3.99902V7.01567H27.7703V3.74879C27.7703 2.54862 27.1055 1.87208 25.9 1.87208C25.0864 1.87208 24.5506 2.21035 24.2877 2.77105H24.2083V1.96939H23.1814V7.01567Z" fill="#7264D6"/>
<path d="M29.4501 7.01567H30.5167V0H29.4501V7.01567Z" fill="#7264D6"/>
<path d="M34.5281 7.11298C36.1057 7.11298 37.0731 6.12596 37.0731 4.49021C37.0731 2.86373 36.1007 1.87208 34.5281 1.87208C32.9505 1.87208 31.9782 2.86373 31.9782 4.49021C31.9782 6.12596 32.9456 7.11298 34.5281 7.11298ZM34.5281 6.22791C33.6004 6.22791 33.0795 5.59307 33.0795 4.49021C33.0795 3.39662 33.6004 2.75715 34.5281 2.75715C35.4509 2.75715 35.9767 3.39662 35.9767 4.49021C35.9767 5.58844 35.4509 6.22791 34.5281 6.22791Z" fill="#7264D6"/>
<path d="M40.2511 6.26035C39.6706 6.26035 39.249 5.99622 39.249 5.5421C39.249 5.09725 39.5863 4.86092 40.3304 4.81458L41.6501 4.73581V5.15749C41.6501 5.78306 41.0547 6.26035 40.2511 6.26035ZM39.9782 7.09907C40.6876 7.09907 41.278 6.81178 41.6004 6.30668H41.6848V7.01567H42.7117V3.56807C42.7117 2.50228 41.9477 1.87208 40.5934 1.87208C39.368 1.87208 38.4949 2.42814 38.3858 3.29467H39.4176C39.5367 2.93787 39.9485 2.73398 40.5438 2.73398C41.273 2.73398 41.6501 3.03518 41.6501 3.56807V4.00366L40.1866 4.08243C38.9017 4.15657 38.1774 4.6802 38.1774 5.58844C38.1774 6.51057 38.9364 7.09907 39.9782 7.09907Z" fill="#7264D6"/>
<path d="M46.3312 7.09907C47.0754 7.09907 47.7054 6.77007 48.0279 6.21864H48.1122V7.01567H49.1342V0H48.0676V2.77105H47.9882C47.6955 2.21499 47.0704 1.88598 46.3312 1.88598C44.967 1.88598 44.0889 2.89616 44.0889 4.49021C44.0889 6.08889 44.957 7.09907 46.3312 7.09907ZM46.6338 2.78032C47.5268 2.78032 48.0874 3.44296 48.0874 4.49484C48.0874 5.55137 47.5318 6.20474 46.6338 6.20474C45.7309 6.20474 45.1902 5.56063 45.1902 4.49021C45.1902 3.42906 45.7359 2.78032 46.6338 2.78032Z" fill="#7264D6"/>
<path d="M56.0507 7.11298C57.6283 7.11298 58.5957 6.12596 58.5957 4.49021C58.5957 2.86373 57.6233 1.87208 56.0507 1.87208C54.4731 1.87208 53.5008 2.86373 53.5008 4.49021C53.5008 6.12596 54.4682 7.11298 56.0507 7.11298ZM56.0507 6.22791C55.123 6.22791 54.6021 5.59307 54.6021 4.49021C54.6021 3.39662 55.123 2.75715 56.0507 2.75715C56.9735 2.75715 57.4993 3.39662 57.4993 4.49021C57.4993 5.58844 56.9735 6.22791 56.0507 6.22791Z" fill="#7264D6"/>
<path d="M60.0076 7.01567H61.0742V4.0639C61.0742 3.27614 61.5752 2.78495 62.364 2.78495C63.1528 2.78495 63.5299 3.1881 63.5299 3.99902V7.01567H64.5965V3.74879C64.5965 2.54862 63.9317 1.87208 62.7262 1.87208C61.9126 1.87208 61.3768 2.21035 61.1139 2.77105H61.0345V1.96939H60.0076V7.01567Z" fill="#7264D6"/>
<path d="M69.5088 0.713615V1.99256H68.6505V2.83129H69.5088V5.68111C69.5088 6.65422 69.9801 7.04347 71.1658 7.04347C71.3741 7.04347 71.5725 7.0203 71.7462 6.9925V6.16303C71.5974 6.17694 71.5031 6.1862 71.3394 6.1862C70.8086 6.1862 70.5754 5.95451 70.5754 5.42625V2.83129H71.7462V1.99256H70.5754V0.713615H69.5088Z" fill="#7264D6"/>
<path d="M73.1779 7.01567H74.2445V4.06853C74.2445 3.30394 74.7307 2.78958 75.6038 2.78958C76.3579 2.78958 76.7597 3.19736 76.7597 4.00366V7.01567H77.8263V3.75806C77.8263 2.55789 77.1169 1.87671 75.966 1.87671C75.1524 1.87671 74.5819 2.21499 74.3189 2.78032H74.2346V0H73.1779V7.01567Z" fill="#7264D6"/>
<path d="M81.674 2.72008C82.4628 2.72008 82.9788 3.23443 83.0036 4.02682H80.2751C80.3346 3.23907 80.8852 2.72008 81.674 2.72008ZM82.9986 5.65331C82.8002 6.04719 82.3587 6.26498 81.7137 6.26498C80.8604 6.26498 80.3098 5.70428 80.2751 4.81922V4.76361H84.09V4.41607C84.09 2.83129 83.1822 1.87208 81.679 1.87208C80.156 1.87208 79.1886 2.89616 79.1886 4.50875C79.1886 6.12133 80.1361 7.11298 81.684 7.11298C82.9192 7.11298 83.7824 6.55691 84.0255 5.65331H82.9986Z" fill="#7264D6"/>
</svg>
