<svg width="88" height="28" viewBox="0 0 88 28" fill="none" xmlns="http://www.w3.org/2000/svg">
<path d="M27.8785 15.3171C25.4584 15.3171 23.4858 17.1579 23.4858 19.6933C23.4858 22.2132 25.4584 24.0694 27.8785 24.0694C30.2996 24.0694 32.2721 22.2132 32.2721 19.6933C32.271 17.1579 30.2986 15.3171 27.8785 15.3171ZM27.8785 22.3469C26.5521 22.3469 25.409 21.2532 25.409 19.6943C25.409 18.119 26.5532 17.0416 27.8785 17.0416C29.2048 17.0416 30.3479 18.119 30.3479 19.6943C30.3479 21.2521 29.2048 22.3469 27.8785 22.3469ZM18.2948 15.3171C15.8747 15.3171 13.9022 17.1579 13.9022 19.6933C13.9022 22.2132 15.8747 24.0694 18.2948 24.0694C20.7159 24.0694 22.6884 22.2132 22.6884 19.6933C22.6884 17.1579 20.7159 15.3171 18.2948 15.3171ZM18.2948 22.3469C16.9685 22.3469 15.8253 21.2532 15.8253 19.6943C15.8253 18.119 16.9695 17.0416 18.2948 17.0416C19.6211 17.0416 20.7643 18.119 20.7643 19.6943C20.7653 21.2521 19.6211 22.3469 18.2948 22.3469ZM6.89604 16.6609V18.5172H11.3391C11.2063 19.5616 10.8585 20.324 10.3276 20.8539C9.68142 21.5001 8.66996 22.2132 6.89604 22.2132C4.16109 22.2132 2.02292 20.0081 2.02292 17.2732C2.02292 14.5382 4.16109 12.3332 6.89604 12.3332C8.37156 12.3332 9.44888 12.9135 10.2443 13.6595L11.5541 12.3496C10.4428 11.2888 8.96835 10.4769 6.89604 10.4769C3.14962 10.4769 -1.88407e-07 13.5267 -1.88407e-07 17.2732C-1.88407e-07 21.0196 3.14962 24.0694 6.89604 24.0694C8.91793 24.0694 10.4439 23.4057 11.6364 22.1627C12.8629 20.9362 13.2447 19.2117 13.2447 17.8195C13.2447 17.3894 13.2118 16.9912 13.1449 16.6599H6.89604V16.6609ZM53.5158 18.1025C53.1516 17.125 52.0403 15.3171 49.7694 15.3171C47.515 15.3171 45.6413 17.091 45.6413 19.6933C45.6413 22.1463 47.4985 24.0694 49.9845 24.0694C51.9899 24.0694 53.1506 22.8429 53.6321 22.1298L52.1401 21.1348C51.6431 21.8643 50.963 22.3449 49.9845 22.3449C49.007 22.3449 48.3104 21.8973 47.8628 21.0186L53.7144 18.5985L53.5158 18.1025ZM47.5479 19.5616C47.4985 17.87 48.8578 17.0087 49.8363 17.0087C50.5988 17.0087 51.2449 17.3905 51.461 17.9368L47.5479 19.5616ZM42.7911 23.805H44.7132V10.942H42.7911V23.805ZM39.6404 16.2957H39.5746C39.1434 15.7812 38.3141 15.3171 37.2707 15.3171C35.0822 15.3171 33.0767 17.2402 33.0767 19.7108C33.0767 22.1638 35.0822 24.0704 37.2707 24.0704C38.3151 24.0704 39.1434 23.6064 39.5746 23.0765H39.6404V23.7062C39.6404 25.3803 38.7452 26.2755 37.3037 26.2755C36.1265 26.2755 35.397 25.4307 35.0986 24.7176L33.4245 25.4142C33.905 26.5739 35.1809 28 37.3037 28C39.5581 28 41.4647 26.6737 41.4647 23.4407V15.5836H39.6414V16.2957H39.6404ZM37.4364 22.3469C36.1101 22.3469 34.9998 21.2357 34.9998 19.7108C34.9998 18.1684 36.1101 17.0416 37.4364 17.0416C38.7452 17.0416 39.7731 18.1684 39.7731 19.7108C39.7731 21.2357 38.7452 22.3469 37.4364 22.3469ZM62.5233 10.942H57.9228V23.805H59.8418V18.9318H62.5223C64.6501 18.9318 66.743 17.3915 66.743 14.9374C66.743 12.4834 64.6512 10.942 62.5233 10.942ZM62.5727 17.1415H59.8418V12.7324H62.5727C64.0081 12.7324 64.823 13.9208 64.823 14.9374C64.823 15.9335 64.0081 17.1415 62.5727 17.1415ZM74.4386 15.2945C73.0485 15.2945 71.609 15.9067 71.0132 17.2639L72.7171 17.9749C73.0814 17.2639 73.7605 17.0314 74.4715 17.0314C75.4644 17.0314 76.4738 17.6271 76.4903 18.6859V18.8186C76.1425 18.6201 75.3976 18.3227 74.488 18.3227C72.6513 18.3227 70.7806 19.3321 70.7806 21.2182C70.7806 22.9396 72.287 24.0478 73.9745 24.0478C75.2648 24.0478 75.9769 23.4685 76.4234 22.7894H76.4893V23.7823H78.3434V18.8505C78.3445 16.5683 76.6385 15.2945 74.4386 15.2945ZM74.206 22.3438C73.5784 22.3438 72.7007 22.029 72.7007 21.2511C72.7007 20.2582 73.7934 19.8774 74.737 19.8774C75.5797 19.8774 75.9779 20.0596 76.4903 20.3075C76.3411 21.5001 75.3152 22.3438 74.206 22.3438ZM85.0954 15.5754L82.8945 21.1523H82.8286L80.5444 15.5754H78.4762L81.9016 23.3697L79.9486 27.7057H81.951L87.2305 15.5754H85.0954ZM67.8029 23.805H69.7219V10.942H67.8029V23.805Z" fill="#7264D6"/>
<path d="M6.56194 3.47575C6.56194 4.33802 6.30676 5.02433 5.79537 5.53675C5.21504 6.14589 4.45773 6.45046 3.52756 6.45046C2.63649 6.45046 1.87815 6.14177 1.25563 5.5244C0.632086 4.906 0.320312 4.14046 0.320312 3.22675C0.320312 2.31201 0.632086 1.54647 1.25563 0.929096C1.87815 0.310695 2.63649 0.00201051 3.52756 0.00201051C3.97001 0.00201051 4.39291 0.088442 4.7942 0.260277C5.19652 0.433141 5.51858 0.662598 5.75936 0.949676L5.2171 1.49296C4.8086 1.00421 4.24577 0.760348 3.52653 0.760348C2.87623 0.760348 2.31442 0.988776 1.84007 1.44563C1.36573 1.90249 1.12907 2.49619 1.12907 3.22572C1.12907 3.95525 1.36573 4.54895 1.84007 5.00581C2.31442 5.46266 2.87623 5.69109 3.52653 5.69109C4.21593 5.69109 4.79111 5.46163 5.25105 5.00169C5.54945 4.70227 5.72231 4.28554 5.76862 3.75151H3.52653V3.00964H6.51769C6.54856 3.17119 6.56194 3.32656 6.56194 3.47575Z" fill="#7264D6"/>
<path d="M11.3055 0.897257H8.49441V2.85433H11.0298V3.5962H8.49441V5.55327H11.3055V6.31264H7.70109V0.138919H11.3055V0.897257Z" fill="#7264D6"/>
<path d="M14.6505 6.31264H13.8572V0.897257H12.1327V0.138919H16.375V0.897257H14.6505V6.31264Z" fill="#7264D6"/>
<path d="M19.4444 6.31264V0.138919H20.2377V6.31264H19.4444Z" fill="#7264D6"/>
<path d="M23.7558 6.31264H22.9625V0.897257H21.238V0.138919H25.4804V0.897257H23.7558V6.31264Z" fill="#7264D6"/>
<path d="M33.5111 5.51519C32.904 6.13873 32.1498 6.45051 31.2474 6.45051C30.345 6.45051 29.5908 6.13873 28.9848 5.51519C28.3777 4.89164 28.0752 4.12816 28.0752 3.22577C28.0752 2.32338 28.3777 1.55989 28.9848 0.936347C29.5908 0.312801 30.345 0 31.2474 0C32.1447 0 32.8979 0.31383 33.507 0.940462C34.1161 1.56709 34.4207 2.32852 34.4207 3.22577C34.4207 4.12816 34.1172 4.89164 33.5111 5.51519ZM29.5702 4.99762C30.0271 5.46065 30.5858 5.69114 31.2474 5.69114C31.909 5.69114 32.4688 5.45962 32.9246 4.99762C33.3815 4.5346 33.6109 3.94398 33.6109 3.22577C33.6109 2.50756 33.3815 1.91694 32.9246 1.45391C32.4688 0.990882 31.909 0.760396 31.2474 0.760396C30.5858 0.760396 30.0271 0.991911 29.5702 1.45391C29.1144 1.91694 28.8849 2.50756 28.8849 3.22577C28.8849 3.94398 29.1144 4.5346 29.5702 4.99762Z" fill="#7264D6"/>
<path d="M35.5341 6.31264V0.138919H36.4992L39.4997 4.94104H39.5336L39.4997 3.75157V0.138919H40.293V6.31264H39.4647L36.3253 1.27694H36.2914L36.3253 2.46641V6.31264H35.5341Z" fill="#7264D6"/>
</svg>
